<svg width="12" height="11" viewBox="0 0 12 11" fill="none" xmlns="http://www.w3.org/2000/svg">
<path d="M5.80506 1.02864C6.06541 1.28899 6.06541 1.7111 5.80506 1.97145L2.94313 4.83337H11.3337C11.3337 5.16671 11.3337 5.13185 11.3337 5.50004C11.3337 5.86823 11.3337 6.16671 11.3337 6.16671H2.94313L5.80506 9.02864C6.06541 9.28899 6.06541 9.71109 5.80506 9.97144C5.54471 10.2318 5.1226 10.2318 4.86225 9.97144L0.862254 5.97144C0.73723 5.84642 0.666992 5.67685 0.666992 5.50004C0.666992 5.32323 0.73723 5.15366 0.862254 5.02864L4.86225 1.02864C5.1226 0.768287 5.54471 0.768287 5.80506 1.02864Z" fill="#0D0D0D"/>
</svg>
