<svg width="12" height="11" viewBox="0 0 12 11" fill="none" xmlns="http://www.w3.org/2000/svg">
<path d="M5.80482 1.02864C6.06517 1.28899 6.06517 1.7111 5.80482 1.97145L2.94289 4.83337H11.3334C11.3334 5.16671 11.3334 5.13185 11.3334 5.50004C11.3334 5.86823 11.3334 6.16671 11.3334 6.16671H2.94289L5.80482 9.02864C6.06517 9.28899 6.06517 9.7111 5.80482 9.97144C5.54447 10.2318 5.12236 10.2318 4.86201 9.97144L0.86201 5.97144C0.736986 5.84642 0.666748 5.67685 0.666748 5.50004C0.666748 5.32323 0.736986 5.15366 0.86201 5.02864L4.86201 1.02864C5.12236 0.768287 5.54447 0.768287 5.80482 1.02864Z" fill="#0D0D0D"/>
</svg>
