<svg width="48" height="48" viewBox="0 0 48 48" fill="none" xmlns="http://www.w3.org/2000/svg">
<g clip-path="url(#clip0_1746_33066)">
<path fill-rule="evenodd" clip-rule="evenodd" d="M10.868 36.8557L10.868 24.7631L0.76289 24.7631L0.762891 47.2005L23.2003 47.2005L23.2003 36.8557L10.868 36.8557ZM24.0003 36.0557L24.0003 48.0005L-0.0371094 48.0005L-0.0371104 23.9631L11.668 23.9631L11.668 36.0557L24.0003 36.0557Z" fill="#141414"/>
<path fill-rule="evenodd" clip-rule="evenodd" d="M24.5006 12.0005L11.0006 12.0005L11.0006 37.0005L36.0006 37.0005L36.0006 23.5005L35.2006 23.5005L35.2006 36.2005L11.8006 36.2005L11.8006 12.8005L24.5006 12.8005L24.5006 12.0005Z" fill="#141414"/>
<path fill-rule="evenodd" clip-rule="evenodd" d="M24.7633 0.799244L24.7633 23.2366L47.2006 23.2366L47.2006 0.799243L24.7633 0.799244ZM23.9633 -0.00075531L48.0006 -0.000756361L48.0006 24.0366L23.9633 24.0366L23.9633 -0.00075531Z" fill="#141414"/>
<path d="M32.4432 7.59401C32.4432 6.63547 30.9686 6.63547 30.9686 7.59401C30.9686 8.47881 32.4432 8.47881 32.4432 7.59401ZM28.1667 7.59401C28.1667 6.63547 26.692 6.63547 26.692 7.59401C26.7657 8.47881 28.1667 8.47881 28.1667 7.59401ZM32.4432 3.31746C32.4432 2.35892 30.9686 2.35892 30.9686 3.31746C30.9686 4.276 32.4432 4.276 32.4432 3.31746ZM36.7198 7.59401C36.7198 6.63547 35.2451 6.63547 35.2451 7.59401C35.2451 8.47881 36.7198 8.47881 36.7198 7.59401ZM36.7198 3.31746C36.7198 2.35892 35.2451 2.35892 35.2451 3.31746C35.2451 4.27599 36.7198 4.27599 36.7198 3.31746ZM40.9226 7.59401C40.9226 6.63547 39.4479 6.63547 39.4479 7.59401C39.4479 8.47881 40.9226 8.47881 40.9226 7.59401ZM40.9226 3.31746C40.9226 2.35892 39.4479 2.35892 39.4479 3.31746C39.4479 4.27599 40.9226 4.27599 40.9226 3.31746ZM45.1992 7.59401C45.1992 6.63547 43.7245 6.63547 43.7245 7.59401C43.7245 8.47881 45.1992 8.47881 45.1992 7.59401ZM45.1992 3.31746C45.1992 2.35892 43.7245 2.35892 43.7245 3.31746C43.7245 4.27599 45.1992 4.27599 45.1992 3.31746ZM28.1667 3.31746C28.1667 2.35892 26.692 2.35892 26.692 3.31746C26.7657 4.276 28.1667 4.276 28.1667 3.31746ZM32.4432 11.9443C32.4432 10.9858 30.9686 10.9858 30.9686 11.9443C30.9686 12.8291 32.4432 12.8291 32.4432 11.9443ZM28.1667 11.9443C28.1667 10.9858 26.692 10.9858 26.692 11.9443C26.7657 12.8291 28.1667 12.8291 28.1667 11.9443ZM36.7198 11.9443C36.7198 10.9858 35.2451 10.9858 35.2451 11.9443C35.2451 12.8291 36.7198 12.8291 36.7198 11.9443ZM40.9226 11.9443C40.9226 10.9858 39.4479 10.9858 39.4479 11.9443C39.4479 12.8291 40.9226 12.8291 40.9226 11.9443ZM45.1992 11.9443C45.1992 10.9858 43.7245 10.9858 43.7245 11.9443C43.7245 12.8291 45.1992 12.8291 45.1992 11.9443ZM32.4432 16.2946C32.4432 15.336 30.9686 15.336 30.9686 16.2946C30.9686 17.1794 32.4432 17.1794 32.4432 16.2946ZM28.1667 16.2946C28.1667 15.336 26.692 15.336 26.692 16.2946C26.7658 17.1794 28.1667 17.1794 28.1667 16.2946ZM36.7198 16.2946C36.7198 15.336 35.2451 15.336 35.2451 16.2946C35.2451 17.1794 36.7198 17.1794 36.7198 16.2946ZM40.9226 16.2946C40.9226 15.336 39.4479 15.336 39.4479 16.2946C39.4479 17.1794 40.9226 17.1794 40.9226 16.2946ZM45.1992 16.2946C45.1992 15.336 43.7245 15.336 43.7245 16.2946C43.7245 17.1794 45.1992 17.1794 45.1992 16.2946ZM32.4432 20.6449C32.4432 19.6863 30.9686 19.6863 30.9686 20.6449C30.9686 21.6034 32.4432 21.6034 32.4432 20.6449ZM28.1667 20.6449C28.1667 19.6863 26.692 19.6863 26.692 20.6449C26.7658 21.6034 28.1667 21.6034 28.1667 20.6449ZM36.7198 20.6449C36.7198 19.6863 35.2451 19.6863 35.2451 20.6449C35.2451 21.6034 36.7198 21.6034 36.7198 20.6449ZM40.9226 20.6449C40.9226 19.6863 39.4479 19.6863 39.4479 20.6449C39.4479 21.6034 40.9226 21.6034 40.9226 20.6449ZM45.1992 20.6449C45.1992 19.6863 43.7245 19.6863 43.7245 20.6449C43.7245 21.6034 45.1992 21.6034 45.1992 20.6449Z" fill="#141414"/>
<path fill-rule="evenodd" clip-rule="evenodd" d="M16.0497 48.2832L0.0125725 32.2461L0.578258 31.6804L16.6153 47.7175L16.0497 48.2832ZM5.5426 48.2832L0.012573 42.7532L0.578258 42.1875L6.10829 47.7175L5.5426 48.2832ZM11.257 48.2832L0.0125728 37.0388L0.578258 36.4731L11.8226 47.7175L11.257 48.2832ZM21.764 48.2832L0.0125723 26.5318L0.578258 25.9661L22.3297 47.7175L21.764 48.2832ZM11.2177 32.2068L3.79404 24.7832L4.35972 24.2175L11.7833 31.6411L11.2177 32.2068ZM11.257 27.0662L8.97401 24.7832L9.5397 24.2175L11.8226 26.5005L11.257 27.0662ZM23.2177 44.5383L15.4626 36.7832L16.0283 36.2175L23.7833 43.9726L23.2177 44.5383ZM23.2177 39.4705L20.5303 36.7832L21.096 36.2175L23.7833 38.9049L23.2177 39.4705Z" fill="#141414"/>
</g>
<defs>
<clipPath id="clip0_1746_33066">
<rect width="48" height="48" fill="white"/>
</clipPath>
</defs>
</svg>
