<svg width="48" height="48" viewBox="0 0 48 48" fill="none" xmlns="http://www.w3.org/2000/svg">
<g clip-path="url(#clip0_1746_32958)">
<path fill-rule="evenodd" clip-rule="evenodd" d="M47.2533 0.8H20.7467V47.2H47.2533V0.8ZM20 0V48H48V0H20Z" fill="#141414"/>
<path d="M38.525 10.7512C39.4665 10.7512 39.4665 9.27655 38.525 9.27655C37.6559 9.27655 37.6559 10.7512 38.525 10.7512ZM38.525 6.47467C39.4665 6.47467 39.4665 5 38.525 5C37.6559 5.07373 37.6559 6.47467 38.525 6.47467ZM42.7255 10.7512C43.667 10.7512 43.667 9.27655 42.7255 9.27655C41.784 9.27655 41.784 10.7512 42.7255 10.7512ZM38.525 15.0278C39.4665 15.0278 39.4665 13.5531 38.525 13.5531C37.6559 13.5531 37.6559 15.0278 38.525 15.0278ZM42.7255 15.0278C43.667 15.0278 43.667 13.5531 42.7255 13.5531C41.784 13.5531 41.784 15.0278 42.7255 15.0278ZM38.525 19.2306C39.4665 19.2306 39.4665 17.7559 38.525 17.7559C37.6559 17.7559 37.6559 19.2306 38.525 19.2306ZM42.7255 19.2306C43.667 19.2306 43.667 17.7559 42.7255 17.7559C41.784 17.7559 41.784 19.2306 42.7255 19.2306ZM38.525 23.5072C39.4665 23.5072 39.4665 22.0325 38.525 22.0325C37.6559 22.0325 37.6559 23.5072 38.525 23.5072ZM42.7255 23.5072C43.667 23.5072 43.667 22.0325 42.7255 22.0325C41.784 22.0325 41.784 23.5072 42.7255 23.5072ZM42.7255 6.47467C43.667 6.47467 43.667 5 42.7255 5C41.784 5.07373 41.784 6.47467 42.7255 6.47467ZM34.252 10.7512C35.1935 10.7512 35.1935 9.27655 34.252 9.27655C33.3829 9.27655 33.3829 10.7512 34.252 10.7512ZM34.252 6.47467C35.1935 6.47467 35.1935 5 34.252 5C33.3829 5.07373 33.3829 6.47467 34.252 6.47467ZM34.252 15.0278C35.1935 15.0278 35.1935 13.5531 34.252 13.5531C33.3829 13.5531 33.3829 15.0278 34.252 15.0278ZM34.252 19.2306C35.1935 19.2306 35.1935 17.7559 34.252 17.7559C33.3829 17.7559 33.3829 19.2306 34.252 19.2306ZM34.252 23.5072C35.1935 23.5072 35.1935 22.0325 34.252 22.0325C33.3829 22.0325 33.3829 23.5072 34.252 23.5072ZM29.9791 10.7512C30.9206 10.7512 30.9206 9.27655 29.9791 9.27655C29.11 9.27655 29.11 10.7512 29.9791 10.7512ZM29.9791 6.47467C30.9206 6.47467 30.9206 5 29.9791 5C29.11 5.07373 29.11 6.47467 29.9791 6.47467ZM29.9791 15.0278C30.9206 15.0278 30.9206 13.5531 29.9791 13.5531C29.11 13.5531 29.11 15.0278 29.9791 15.0278ZM29.9791 19.2306C30.9206 19.2306 30.9206 17.7559 29.9791 17.7559C29.11 17.7559 29.11 19.2306 29.9791 19.2306ZM29.9791 23.5072C30.9206 23.5072 30.9206 22.0325 29.9791 22.0325C29.11 22.0325 29.11 23.5072 29.9791 23.5072ZM25.7061 10.7512C26.6476 10.7512 26.6476 9.27655 25.7061 9.27655C24.7646 9.27655 24.7646 10.7512 25.7061 10.7512ZM25.7061 6.47467C26.6476 6.47467 26.6476 5 25.7061 5C24.7646 5.07373 24.7646 6.47467 25.7061 6.47467ZM25.7061 15.0278C26.6476 15.0278 26.6476 13.5531 25.7061 13.5531C24.7646 13.5531 24.7646 15.0278 25.7061 15.0278ZM25.7061 19.2306C26.6476 19.2306 26.6476 17.7559 25.7061 17.7559C24.7646 17.7559 24.7646 19.2306 25.7061 19.2306ZM25.7061 23.5072C26.6476 23.5072 26.6476 22.0325 25.7061 22.0325C24.7646 22.0325 24.7646 23.5072 25.7061 23.5072Z" fill="#141414"/>
<rect y="31" width="30.5455" height="1" fill="#141414"/>
<rect y="39" width="30.5455" height="1" fill="#141414"/>
<path fill-rule="evenodd" clip-rule="evenodd" d="M5.64616 5.57243V0H6.44616V5.57243H12.0186V6.37243H6.44616V12.0186H5.64616V6.37243H0V5.57243H5.64616Z" fill="#141414"/>
</g>
<defs>
<clipPath id="clip0_1746_32958">
<rect width="48" height="48" fill="white"/>
</clipPath>
</defs>
</svg>
