<svg width="48" height="48" viewBox="0 0 48 48" fill="none" xmlns="http://www.w3.org/2000/svg">
<path fill-rule="evenodd" clip-rule="evenodd" d="M10 19.2C15.081 19.2 19.2 15.081 19.2 10C19.2 4.91898 15.081 0.8 10 0.8C4.91898 0.8 0.8 4.91898 0.8 10C0.8 15.081 4.91898 19.2 10 19.2ZM10 20C15.5228 20 20 15.5228 20 10C20 4.47715 15.5228 0 10 0C4.47715 0 0 4.47715 0 10C0 15.5228 4.47715 20 10 20Z" fill="#141414"/>
<path fill-rule="evenodd" clip-rule="evenodd" d="M9.49501 9.57243V4H10.295V9.57243H15.7181V10.3724H10.295V16.0186H9.49501V10.3724H4V9.57243H9.49501Z" fill="#141414"/>
<path fill-rule="evenodd" clip-rule="evenodd" d="M38 47.2C43.081 47.2 47.2 43.081 47.2 38C47.2 32.919 43.081 28.8 38 28.8C32.919 28.8 28.8 32.919 28.8 38C28.8 43.081 32.919 47.2 38 47.2ZM38 48C43.5228 48 48 43.5228 48 38C48 32.4772 43.5228 28 38 28C32.4772 28 28 32.4772 28 38C28 43.5228 32.4772 48 38 48Z" fill="#141414"/>
<path fill-rule="evenodd" clip-rule="evenodd" d="M32 37.6001H43.7181V38.4001H32V37.6001Z" fill="#141414"/>
<path fill-rule="evenodd" clip-rule="evenodd" d="M24 36.2C30.7379 36.2 36.2 30.7379 36.2 24C36.2 17.2621 30.7379 11.8 24 11.8C17.2621 11.8 11.8 17.2621 11.8 24C11.8 30.7379 17.2621 36.2 24 36.2ZM24 37C31.1797 37 37 31.1797 37 24C37 16.8203 31.1797 11 24 11C16.8203 11 11 16.8203 11 24C11 31.1797 16.8203 37 24 37Z" fill="#141414"/>
<path d="M19.9721 20.5255C19.9721 19.6572 18.6972 19.6572 18.6972 20.5255C18.6972 21.3271 19.9721 21.3271 19.9721 20.5255ZM16.2749 20.5255C16.2749 19.6572 15 19.6572 15 20.5255C15.0637 21.3271 16.2749 21.3271 16.2749 20.5255ZM19.9721 16.6513C19.9721 15.7829 18.6972 15.7829 18.6972 16.6513C18.6972 17.5196 19.9721 17.5196 19.9721 16.6513ZM23.6693 20.5255C23.6693 19.6572 22.3944 19.6572 22.3944 20.5255C22.3944 21.3271 23.6693 21.3271 23.6693 20.5255ZM23.6693 16.6513C23.6693 15.7829 22.3944 15.7829 22.3944 16.6513C22.3944 17.5196 23.6693 17.5196 23.6693 16.6513ZM27.3028 20.5255C27.3028 19.6572 26.0279 19.6572 26.0279 20.5255C26.0279 21.3271 27.3028 21.3271 27.3028 20.5255ZM27.3028 16.6513C27.3028 15.7829 26.0279 15.7829 26.0279 16.6513C26.0279 17.5196 27.3028 17.5196 27.3028 16.6513ZM31 20.5255C31 19.6572 29.7251 19.6572 29.7251 20.5255C29.7251 21.3271 31 21.3271 31 20.5255ZM19.9721 24.4666C19.9721 23.5982 18.6972 23.5982 18.6972 24.4666C18.6972 25.2682 19.9721 25.2682 19.9721 24.4666ZM16.2749 24.4666C16.2749 23.5982 15 23.5982 15 24.4666C15.0637 25.2682 16.2749 25.2682 16.2749 24.4666ZM23.6693 24.4666C23.6693 23.5982 22.3944 23.5982 22.3944 24.4666C22.3944 25.2682 23.6693 25.2682 23.6693 24.4666ZM27.3028 24.4666C27.3028 23.5982 26.0279 23.5982 26.0279 24.4666C26.0279 25.2682 27.3028 25.2682 27.3028 24.4666ZM31 24.4666C31 23.5982 29.7251 23.5982 29.7251 24.4666C29.7251 25.2682 31 25.2682 31 24.4666ZM19.9721 28.4077C19.9721 27.5393 18.6972 27.5393 18.6972 28.4077C18.6972 29.2092 19.9721 29.2092 19.9721 28.4077ZM16.2749 28.4077C16.2749 27.5393 15 27.5393 15 28.4077C15.0637 29.2092 16.2749 29.2092 16.2749 28.4077ZM23.6693 28.4077C23.6693 27.5393 22.3944 27.5393 22.3944 28.4077C22.3944 29.2092 23.6693 29.2092 23.6693 28.4077ZM27.3028 28.4077C27.3028 27.5393 26.0279 27.5393 26.0279 28.4077C26.0279 29.2092 27.3028 29.2092 27.3028 28.4077ZM31 28.4077C31 27.5393 29.7251 27.5393 29.7251 28.4077C29.7251 29.2092 31 29.2092 31 28.4077ZM19.9721 32.3487C19.9721 31.4804 18.6972 31.4804 18.6972 32.3487C18.6972 33.2171 19.9721 33.2171 19.9721 32.3487ZM23.6693 32.3487C23.6693 31.4804 22.3944 31.4804 22.3944 32.3487C22.3944 33.2171 23.6693 33.2171 23.6693 32.3487ZM27.3028 32.3487C27.3028 31.4804 26.0279 31.4804 26.0279 32.3487C26.0279 33.2171 27.3028 33.2171 27.3028 32.3487Z" fill="#141414"/>
</svg>
