<svg width="50" height="50" viewBox="0 0 50 50" fill="none" xmlns="http://www.w3.org/2000/svg">
<path fill-rule="evenodd" clip-rule="evenodd" d="M12.9448 13.2397H25.0374V1.29492H1V25.3323H12.9448V13.2397Z" stroke="#141414" stroke-width="0.8"/>
<path d="M43.0285 1V13.0186M49.0009 6.97243H36.9824H49.0009Z" stroke="#141414" stroke-width="0.8"/>
<path d="M25.0372 37.2766H12.9446V13.2393H36.982V24.9627" stroke="#141414" stroke-width="0.8"/>
<path d="M49.0012 24.9629H24.9639V49.0003H49.0012V24.9629Z" stroke="#141414" stroke-width="0.8"/>
<path d="M41.4064 33.4431C42.3649 33.4431 42.3649 31.9684 41.4064 31.9684C40.5216 31.9684 40.5216 33.4431 41.4064 33.4431ZM41.4064 29.1666C42.3649 29.1666 42.3649 27.6919 41.4064 27.6919C40.5216 27.7656 40.5216 29.1666 41.4064 29.1666ZM45.6829 33.4431C46.6414 33.4431 46.6414 31.9684 45.6829 31.9684C44.7244 31.9684 44.7244 33.4431 45.6829 33.4431ZM41.4064 37.7197C42.3649 37.7197 42.3649 36.245 41.4064 36.245C40.5216 36.245 40.5216 37.7197 41.4064 37.7197ZM45.6829 37.7197C46.6414 37.7197 46.6414 36.245 45.6829 36.245C44.7244 36.245 44.7244 37.7197 45.6829 37.7197ZM41.4064 41.9225C42.3649 41.9225 42.3649 40.4478 41.4064 40.4478C40.5216 40.4478 40.5216 41.9225 41.4064 41.9225ZM45.6829 41.9225C46.6414 41.9225 46.6414 40.4478 45.6829 40.4478C44.7244 40.4478 44.7244 41.9225 45.6829 41.9225ZM41.4064 46.1991C42.3649 46.1991 42.3649 44.7244 41.4064 44.7244C40.5216 44.7244 40.5216 46.1991 41.4064 46.1991ZM45.6829 46.1991C46.6414 46.1991 46.6414 44.7244 45.6829 44.7244C44.7244 44.7244 44.7244 46.1991 45.6829 46.1991ZM45.6829 29.1666C46.6414 29.1666 46.6414 27.6919 45.6829 27.6919C44.7244 27.7656 44.7244 29.1666 45.6829 29.1666ZM37.0561 33.4431C38.0146 33.4431 38.0146 31.9684 37.0561 31.9684C36.1713 31.9684 36.1713 33.4431 37.0561 33.4431ZM37.0561 29.1666C38.0146 29.1666 38.0146 27.6919 37.0561 27.6919C36.1713 27.7656 36.1713 29.1666 37.0561 29.1666ZM37.0561 37.7197C38.0146 37.7197 38.0146 36.245 37.0561 36.245C36.1713 36.245 36.1713 37.7197 37.0561 37.7197ZM37.0561 41.9225C38.0146 41.9225 38.0146 40.4478 37.0561 40.4478C36.1713 40.4478 36.1713 41.9225 37.0561 41.9225ZM37.0561 46.1991C38.0146 46.1991 38.0146 44.7244 37.0561 44.7244C36.1713 44.7244 36.1713 46.1991 37.0561 46.1991ZM32.7058 33.4431C33.6643 33.4431 33.6643 31.9684 32.7058 31.9684C31.821 31.9684 31.821 33.4431 32.7058 33.4431ZM32.7058 29.1666C33.6643 29.1666 33.6643 27.6919 32.7058 27.6919C31.821 27.7656 31.821 29.1666 32.7058 29.1666ZM32.7058 37.7197C33.6643 37.7197 33.6643 36.245 32.7058 36.245C31.821 36.245 31.821 37.7197 32.7058 37.7197ZM32.7058 41.9225C33.6643 41.9225 33.6643 40.4478 32.7058 40.4478C31.821 40.4478 31.821 41.9225 32.7058 41.9225ZM32.7058 46.1991C33.6643 46.1991 33.6643 44.7244 32.7058 44.7244C31.821 44.7244 31.821 46.1991 32.7058 46.1991ZM28.3555 33.4431C29.314 33.4431 29.314 31.9684 28.3555 31.9684C27.397 31.9684 27.397 33.4431 28.3555 33.4431ZM28.3555 29.1666C29.314 29.1666 29.314 27.6919 28.3555 27.6919C27.397 27.7656 27.397 29.1666 28.3555 29.1666ZM28.3555 37.7197C29.314 37.7197 29.314 36.245 28.3555 36.245C27.397 36.245 27.397 37.7197 28.3555 37.7197ZM28.3555 41.9225C29.314 41.9225 29.314 40.4478 28.3555 40.4478C27.397 40.4478 27.397 41.9225 28.3555 41.9225ZM28.3555 46.1991C29.314 46.1991 29.314 44.7244 28.3555 44.7244C27.397 44.7244 27.397 46.1991 28.3555 46.1991Z" fill="#141414"/>
<path d="M22.7514 1.29492L1 23.0464M6.53003 1.29492L1 6.82495L6.53003 1.29492ZM25.0426 4.53375L16.526 13.0504L25.0426 4.53375ZM25.0426 9.71373L21.706 13.0504L25.0426 9.71373ZM13.0766 16.1684L4.00992 25.235L13.0766 16.1684ZM13.0766 21.2361L9.07763 25.235L13.0766 21.2361ZM17.0371 1.29492L1 17.332L17.0371 1.29492ZM12.2444 1.29492L1 12.5393L12.2444 1.29492Z" stroke="#141414" stroke-width="0.8"/>
</svg>
