<svg width="668" height="93" viewBox="0 0 668 93" fill="none" xmlns="http://www.w3.org/2000/svg">
<path d="M0 1.6826V91.3254H16.0955V53.2584H50.9897V38.7232H16.0955V16.2178H54.3343V1.6826H0Z" fill="#141414"/>
<path d="M85.8337 1.6826H69.7382V91.3254H85.8337V1.6826Z" fill="#141414"/>
<path d="M151.834 63.936C151.869 62.2348 151.53 60.5467 150.84 58.9909C150.15 57.4352 149.126 56.0497 147.841 54.9325C145.184 52.526 141.793 51.3251 137.67 51.3297H119.795V76.8179H137.821C141.517 76.9259 145.11 75.5945 147.841 73.1049C149.133 71.9533 150.159 70.5351 150.849 68.9485C151.538 67.3618 151.874 65.6446 151.834 63.9154V63.936ZM145.524 26.7163C145.556 25.3061 145.286 23.9052 144.732 22.6078C144.178 21.3104 143.352 20.1463 142.311 19.1939C140.069 17.1417 137.108 16.055 134.07 16.1697H119.795V37.7727H133.959C137.394 37.7727 140.184 36.744 142.331 34.6866C143.397 33.6578 144.234 32.4164 144.788 31.0432C145.341 29.67 145.599 28.1957 145.545 26.7163H145.524ZM148.827 4.58978C152.528 6.45794 155.663 9.27817 157.91 12.7598C160.149 16.2721 161.312 20.3619 161.254 24.5257C161.35 28.471 160.298 32.3595 158.227 35.7199C156.248 38.861 153.282 41.2572 149.793 42.5328C155.544 43.5661 159.988 46.092 163.123 50.1104C166.258 54.1288 167.817 59.0382 167.799 64.8385C167.861 69.5777 166.638 74.2455 164.261 78.3472C161.929 82.3505 158.545 85.6404 154.475 87.8605C150.194 90.1932 145.38 91.3797 140.504 91.3049H103.679V1.68274H136.125C140.529 1.62717 144.882 2.64134 148.807 4.638" fill="#141414"/>
<path d="M345.371 63.9359V1.6826H360.949V91.3254H347.819L299.278 27.9217V91.3254H283.699V1.6826H297.864L345.371 63.9359Z" fill="#141414"/>
<path d="M401.234 60.2022H431.108L416.171 23.692L401.234 60.2022ZM460.458 91.3254H443.466L436.128 73.4492H396.214L388.876 91.3254H371.877L409.351 1.6826H422.998L460.458 91.3254Z" fill="#141414"/>
<path d="M652.774 1.6826H636.678V91.3254H652.774V1.6826Z" fill="#141414"/>
<path d="M223.402 0.00689019C211.057 0.0087167 199.218 4.90827 190.489 13.6281C181.76 22.3479 176.855 34.174 176.853 46.5057H191.404C191.403 40.1836 193.278 34.0031 196.793 28.7458C200.309 23.4885 205.305 19.3906 211.152 16.9703C216.999 14.5499 223.433 13.916 229.64 15.1485C235.848 16.3811 241.55 19.4248 246.025 23.8947C250.501 28.3646 253.549 34.06 254.785 40.2605C256.02 46.461 255.386 52.8882 252.965 58.7292C250.543 64.5702 246.442 69.5626 241.18 73.0751C235.918 76.5876 229.731 78.4625 223.402 78.4625V92.9976C235.747 92.9976 247.587 88.0987 256.317 79.3785C265.046 70.6582 269.951 58.8311 269.951 46.4988C269.951 34.1666 265.046 22.3394 256.317 13.6192C247.587 4.89897 235.747 0 223.402 0V0.00689019Z" fill="#141414"/>
<path d="M475.142 79.3806C479.464 83.6985 484.596 87.1236 490.243 89.4604C495.891 91.7972 501.944 93 508.057 93C514.17 93 520.223 91.7972 525.87 89.4604C531.518 87.1236 536.65 83.6985 540.972 79.3806L530.683 69.1026C526.208 73.5738 520.507 76.6189 514.3 77.853C508.092 79.0871 501.658 78.4546 495.811 76.0357C489.963 73.6167 484.966 69.5198 481.449 64.2632C477.933 59.0066 476.056 52.8264 476.056 46.5042C476.056 40.182 477.933 34.0018 481.449 28.7452C484.966 23.4886 489.963 19.3918 495.811 16.9728C501.658 14.5538 508.092 13.9214 514.3 15.1554C520.507 16.3895 526.208 19.4347 530.683 23.9058L540.972 13.6278C532.215 5.04568 520.42 0.263884 508.152 0.322175C495.884 0.380467 484.135 5.27413 475.46 13.9391C466.785 22.6041 461.885 34.3398 461.825 46.5944C461.766 58.8491 466.551 70.6318 475.142 79.3806Z" fill="#141414"/>
<path d="M558.307 79.3802C562.629 83.6978 567.76 87.1228 573.407 89.4596C579.054 91.7963 585.107 92.999 591.219 92.999C597.331 92.999 603.384 91.7963 609.031 89.4596C614.678 87.1228 619.809 83.6978 624.131 79.3802L613.842 69.1022C609.367 73.5733 603.666 76.6185 597.458 77.8526C591.251 79.0867 584.817 78.4542 578.969 76.0352C573.122 73.6163 568.124 69.5194 564.608 64.2628C561.091 59.0062 559.214 52.826 559.214 46.5038C559.214 40.1816 561.091 34.0014 564.608 28.7448C568.124 23.4882 573.122 19.3913 578.969 16.9723C584.817 14.5534 591.251 13.9209 597.458 15.155C603.666 16.3891 609.367 19.4342 613.842 23.9054L624.131 13.6274C615.402 4.90803 603.563 0.00954312 591.219 0.00954312C578.875 0.00954312 567.036 4.90803 558.307 13.6274C549.578 22.3468 544.675 34.1727 544.675 46.5038C544.675 58.8348 549.578 70.6608 558.307 79.3802Z" fill="#141414"/>
</svg>
