<svg width="64" height="450" viewBox="0 0 64 450" fill="none" xmlns="http://www.w3.org/2000/svg">
<path d="M1.15792 449.699L62.8476 449.699L62.8476 438.623L36.6509 438.623L36.6509 414.61L26.6482 414.61L26.6482 438.623L11.1606 438.623L11.1606 412.308L1.15792 412.308L1.15792 449.699Z" fill="#D6CEC5"/>
<path d="M1.15792 390.631L1.15792 401.707L62.8476 401.707L62.8476 390.631L1.15792 390.631Z" fill="#D6CEC5"/>
<path d="M43.999 345.211C42.8283 345.187 41.6665 345.421 40.5959 345.896C39.5253 346.37 38.5718 347.075 37.803 347.959C36.1469 349.788 35.3205 352.121 35.3237 354.959L35.3237 367.26L52.864 367.26L52.864 354.854C52.9383 352.311 52.022 349.838 50.3088 347.959C49.5162 347.07 48.5403 346.364 47.4484 345.889C46.3565 345.415 45.1748 345.184 43.9848 345.211L43.999 345.211ZM18.3854 349.554C17.4149 349.531 16.4509 349.717 15.558 350.099C14.6652 350.48 13.8641 351.048 13.2087 351.765C11.7964 353.308 11.0486 355.345 11.1275 357.436L11.1275 367.26L25.9941 367.26L25.9941 357.512C25.9941 355.149 25.2862 353.228 23.8703 351.751C23.1623 351.017 22.308 350.442 21.363 350.06C20.418 349.679 19.4035 349.502 18.3854 349.539L18.3854 349.554ZM3.15855 347.28C4.44417 344.734 6.38497 342.576 8.78092 341.03C11.198 339.489 14.0125 338.689 16.8779 338.729C19.593 338.663 22.2689 339.386 24.5814 340.812C26.743 342.174 28.3921 344.215 29.2699 346.616C29.981 342.658 31.7192 339.6 34.4846 337.442C37.2499 335.285 40.6284 334.212 44.62 334.225C47.8814 334.182 51.0937 335.023 53.9164 336.659C56.6713 338.264 58.9353 340.593 60.4632 343.394C62.0684 346.34 62.885 349.652 62.8335 353.008L62.8335 378.35L1.15801 378.35L1.15801 356.022C1.11977 352.991 1.81769 349.996 3.19174 347.295" fill="#D6CEC5"/>
<path d="M43.9989 212.025L1.15791 212.025L1.15791 201.304L62.8476 201.304L62.8476 210.34L19.2149 243.745L62.8476 243.745L62.8476 254.465L1.15791 254.465L1.15791 244.718L43.9989 212.025Z" fill="#D6CEC5"/>
<path d="M41.4295 173.581L41.4295 153.023L16.3042 163.302L41.4295 173.581ZM62.8476 132.825L62.8476 144.518L50.5457 149.568L50.5457 177.036L62.8476 182.085L62.8476 193.784L1.1579 167.995L1.1579 158.604L62.8476 132.825Z" fill="#D6CEC5"/>
<path d="M1.1579 0.478668L1.1579 11.5551L62.8476 11.5551L62.8476 0.478665L1.1579 0.478668Z" fill="#D6CEC5"/>
<path d="M0.00473491 295.96C0.00599224 304.456 3.37773 312.603 9.37847 318.61C15.3792 324.617 23.5176 327.992 32.0039 327.994L32.0039 317.98C27.6532 317.981 23.4 316.691 19.782 314.272C16.1641 311.852 13.344 308.414 11.6784 304.39C10.0129 300.367 9.57658 295.939 10.4248 291.667C11.273 287.395 13.3676 283.471 16.4436 280.391C19.5197 277.311 23.4391 275.214 27.7061 274.364C31.9732 273.514 36.3962 273.949 40.4158 275.616C44.4354 277.282 47.871 280.105 50.2883 283.726C52.7055 287.347 53.9957 291.605 53.9957 295.96L63.9984 295.96C63.9984 287.464 60.627 279.317 54.626 273.309C48.625 267.302 40.4859 263.927 31.9992 263.927C23.5125 263.927 15.3734 267.302 9.37234 273.309C3.37133 279.317 -7.09151e-06 287.464 -6.72015e-06 295.96L0.00473491 295.96Z" fill="#D6CEC5"/>
<path d="M54.6275 122.72C57.5989 119.745 59.956 116.214 61.5641 112.327C63.1723 108.441 64 104.275 64 100.069C64 95.8619 63.1723 91.6963 61.5641 87.8098C59.956 83.9233 57.5989 80.392 54.6275 77.4174L47.5545 84.498C50.6314 87.5773 52.727 91.5009 53.5762 95.7725C54.4255 100.044 53.9903 104.472 52.3256 108.496C50.6609 112.52 47.8416 115.96 44.2241 118.379C40.6067 120.799 36.3536 122.091 32.0029 122.091C27.6521 122.091 23.3991 120.799 19.7816 118.379C16.1642 115.96 13.3449 112.52 11.6802 108.496C10.0155 104.472 9.58028 100.044 10.4295 95.7725C11.2788 91.5009 13.3744 87.5773 16.4513 84.498L9.37828 77.4174C3.47228 83.444 0.181582 91.5609 0.221697 100.003C0.261812 108.446 3.62949 116.531 9.59249 122.501C15.5555 128.471 23.6317 131.843 32.065 131.884C40.4983 131.925 48.6068 128.632 54.6275 122.72Z" fill="#D6CEC5"/>
<path d="M54.6272 65.4879C57.5985 62.5137 59.9555 58.9827 61.5636 55.0966C63.1716 51.2104 63.9993 47.0453 63.9993 42.8389C63.9993 38.6326 63.1716 34.4674 61.5636 30.5813C59.9555 26.6952 57.5985 23.1642 54.6272 20.19L47.5542 27.2706C50.6311 30.3499 52.7267 34.2735 53.576 38.5452C54.4252 42.8168 53.99 47.2447 52.3253 51.2687C50.6606 55.2927 47.8413 58.7322 44.2238 61.152C40.6064 63.5719 36.3534 64.8635 32.0026 64.8635C27.6518 64.8635 23.3988 63.5719 19.7813 61.152C16.1639 58.7322 13.3446 55.2927 11.6799 51.2687C10.0152 47.2447 9.57997 42.8168 10.4292 38.5452C11.2785 34.2735 13.3741 30.3499 16.451 27.2706L9.37797 20.19C3.37755 26.1969 0.00654915 34.3439 0.00654953 42.8389C0.0065499 51.3339 3.37756 59.481 9.37798 65.4879C15.3784 71.4947 23.5167 74.8693 32.0026 74.8693C40.4885 74.8693 48.6268 71.4947 54.6272 65.4879Z" fill="#D6CEC5"/>
</svg>
