<svg width="120" height="120" viewBox="0 0 120 120" fill="none" xmlns="http://www.w3.org/2000/svg">
<path d="M59.5486 14.0069C47.2037 14.0087 35.365 18.9083 26.6358 27.6281C17.9066 36.3479 13.0018 48.174 13 60.5057H27.5508C27.5494 54.1836 29.4249 48.0031 32.94 42.7458C36.4551 37.4885 41.4521 33.3906 47.2988 30.9703C53.1455 28.5499 59.5794 27.916 65.7868 29.1485C71.9943 30.3811 77.6964 33.4248 82.1721 37.8947C86.6477 42.3646 89.6959 48.06 90.9311 54.2605C92.1663 60.461 91.5331 66.8882 89.1114 72.7292C86.6898 78.5702 82.5886 83.5626 77.3264 87.0751C72.0642 90.5876 65.8775 92.4625 59.5486 92.4625V106.998C71.8941 106.998 83.7339 102.099 92.4634 93.3785C101.193 84.6582 106.097 72.8311 106.097 60.4988C106.097 48.1666 101.193 36.3394 92.4634 27.6192C83.7339 18.899 71.8941 14 59.5486 14V14.0069Z" fill="#D6CEC5"/>
</svg>
